<svg width="26" height="26" viewBox="0 0 26 26" fill="none" xmlns="http://www.w3.org/2000/svg">
<path d="M8.9375 12.1875C9.36848 12.1875 9.7818 12.0163 10.0865 11.7115C10.3913 11.4068 10.5625 10.9935 10.5625 10.5625C10.5625 10.1315 10.3913 9.7182 10.0865 9.41345C9.7818 9.10871 9.36848 8.9375 8.9375 8.9375C8.50652 8.9375 8.0932 9.10871 7.78845 9.41345C7.48371 9.7182 7.3125 10.1315 7.3125 10.5625C7.3125 10.9935 7.48371 11.4068 7.78845 11.7115C8.0932 12.0163 8.50652 12.1875 8.9375 12.1875ZM18.6875 10.5625C18.6875 10.9935 18.5163 11.4068 18.2115 11.7115C17.9068 12.0163 17.4935 12.1875 17.0625 12.1875C16.6315 12.1875 16.2182 12.0163 15.9135 11.7115C15.6087 11.4068 15.4375 10.9935 15.4375 10.5625C15.4375 10.1315 15.6087 9.7182 15.9135 9.41345C16.2182 9.10871 16.6315 8.9375 17.0625 8.9375C17.4935 8.9375 17.9068 9.10871 18.2115 9.41345C18.5163 9.7182 18.6875 10.1315 18.6875 10.5625ZM18.7882 18.5088C18.6209 18.6425 18.4075 18.7048 18.1944 18.6819C17.9814 18.6591 17.786 18.5531 17.6508 18.3869L17.6459 18.382C17.5755 18.3041 17.5012 18.2298 17.4233 18.1594C17.1699 17.9313 16.8938 17.7299 16.5994 17.5581C15.8503 17.1194 14.6705 16.6562 13.0033 16.6562C11.336 16.6562 10.1546 17.1178 9.40225 17.5597C9.10735 17.7316 8.83075 17.933 8.57675 18.161C8.49829 18.2314 8.42344 18.3057 8.3525 18.3836L8.34762 18.3885C8.28041 18.4714 8.19751 18.5403 8.10368 18.5911C8.00985 18.642 7.90692 18.6739 7.80077 18.685C7.69461 18.6961 7.58731 18.6861 7.48499 18.6558C7.38268 18.6254 7.28734 18.5752 7.20444 18.5079C7.12153 18.4407 7.05268 18.3578 7.00181 18.264C6.95094 18.1702 6.91905 18.0672 6.90796 17.9611C6.89687 17.8549 6.90679 17.7476 6.93717 17.6453C6.96755 17.543 7.01778 17.4477 7.085 17.3647L7.71875 17.875L7.085 17.3664V17.3647L7.08825 17.3631L7.0915 17.3599L7.09963 17.3501L7.12238 17.3209L7.202 17.2331C7.267 17.1632 7.36125 17.0674 7.48475 16.9569C7.73175 16.7326 8.09413 16.4434 8.58 16.159C9.555 15.5854 11.0175 15.0312 13.0033 15.0312C14.9874 15.0312 16.4482 15.5838 17.4233 16.159C17.9107 16.445 18.2715 16.7326 18.5169 16.9552C18.6437 17.071 18.7641 17.1936 18.8776 17.3225L18.902 17.3501L18.9101 17.3599L18.9134 17.3647C18.9134 17.3647 18.915 17.368 18.2812 17.875L18.915 17.368C19.0492 17.5362 19.1113 17.7507 19.0875 17.9646C19.0637 18.1784 18.9561 18.3741 18.7882 18.5088ZM13 0C9.55219 0 6.24558 1.36964 3.80761 3.80761C1.36964 6.24558 0 9.55219 0 13C0 16.4478 1.36964 19.7544 3.80761 22.1924C6.24558 24.6304 9.55219 26 13 26C16.4478 26 19.7544 24.6304 22.1924 22.1924C24.6304 19.7544 26 16.4478 26 13C26 9.55219 24.6304 6.24558 22.1924 3.80761C19.7544 1.36964 16.4478 0 13 0ZM1.625 13C1.625 11.5062 1.91922 10.0271 2.49087 8.64698C3.06252 7.2669 3.90039 6.01293 4.95666 4.95666C6.01293 3.90039 7.2669 3.06252 8.64698 2.49087C10.0271 1.91922 11.5062 1.625 13 1.625C14.4938 1.625 15.9729 1.91922 17.353 2.49087C18.7331 3.06252 19.9871 3.90039 21.0433 4.95666C22.0996 6.01293 22.9375 7.2669 23.5091 8.64698C24.0808 10.0271 24.375 11.5062 24.375 13C24.375 16.0168 23.1766 18.9101 21.0433 21.0433C18.9101 23.1766 16.0168 24.375 13 24.375C9.98316 24.375 7.08989 23.1766 4.95666 21.0433C2.82343 18.9101 1.625 16.0168 1.625 13Z" fill="#FF551F"/>
</svg>
