<svg width="26" height="26" viewBox="0 0 26 26" fill="none" xmlns="http://www.w3.org/2000/svg">
<path fill-rule="evenodd" clip-rule="evenodd" d="M13 24.5556C19.3823 24.5556 24.5556 19.3823 24.5556 13C24.5556 6.61772 19.3823 1.44444 13 1.44444C6.61772 1.44444 1.44444 6.61772 1.44444 13C1.44444 19.3823 6.61772 24.5556 13 24.5556ZM13 26C20.1796 26 26 20.1796 26 13C26 5.82039 20.1796 0 13 0C5.82039 0 0 5.82039 0 13C0 20.1796 5.82039 26 13 26Z" fill="#55D653"/>
<path fill-rule="evenodd" clip-rule="evenodd" d="M7.72433 15.8888C8.84738 18.6563 10.9165 20.2221 13.0002 20.2221C15.0845 20.2221 17.1529 18.6563 18.276 15.8888H7.72433ZM13.0002 21.6666C10.0838 21.6666 7.55605 19.4652 6.31383 16.2499C6.30167 16.2189 6.28963 16.1878 6.27772 16.1567C5.9556 15.2966 6.6446 14.4443 7.56399 14.4443H18.437C19.3564 14.4443 20.0462 15.2966 19.7226 16.1567C19.7109 16.1878 19.6991 16.2189 19.6872 16.2499C18.4443 19.4652 15.9165 21.6666 13.0002 21.6666Z" fill="#55D653"/>
<path d="M11.0513 11.8747C11.1452 11.6161 11.117 11.3005 11.0398 11.0131C10.9467 10.682 10.7977 10.3694 10.5992 10.0886C10.1796 9.48989 9.48409 8.94028 8.54448 8.89983C7.57165 8.85939 6.84509 9.47689 6.39731 10.1319C6.18225 10.4472 6.01323 10.7916 5.89537 11.1546C5.79209 11.4767 5.7372 11.8061 5.77331 12.0697C5.78161 12.1298 5.80492 12.1868 5.84109 12.2355C5.87725 12.2842 5.92512 12.3231 5.98025 12.3484C6.03538 12.3737 6.09601 12.3848 6.15653 12.3805C6.21705 12.3762 6.27552 12.3567 6.32653 12.3239C6.61542 12.139 6.91803 11.8855 7.19826 11.6515C7.32537 11.5446 7.44887 11.4421 7.56298 11.3518C7.96887 11.0311 8.2852 10.8484 8.54665 10.8354C8.79581 10.8231 9.08326 10.9654 9.44581 11.2369C9.57581 11.3337 9.70148 11.4363 9.83148 11.5432L9.97231 11.658C10.1485 11.8003 10.3363 11.9462 10.5255 12.0603C10.5712 12.0878 10.6224 12.1049 10.6754 12.1103C10.7284 12.1157 10.782 12.1093 10.8322 12.0916C10.8825 12.0738 10.9282 12.0452 10.9661 12.0077C11.004 11.9702 11.0331 11.9247 11.0513 11.8747V11.8747ZM14.887 11.8747C14.7931 11.6161 14.822 11.3005 14.8993 11.0131C14.9802 10.7126 15.1297 10.3898 15.3399 10.0886C15.7588 9.48989 16.455 8.94028 17.3946 8.89983C18.3667 8.85939 19.094 9.47689 19.5418 10.1319C19.7685 10.4642 19.9375 10.8238 20.0437 11.1546C20.1463 11.4767 20.2011 11.8061 20.165 12.0697C20.1567 12.1297 20.1334 12.1866 20.0972 12.2352C20.0611 12.2838 20.0133 12.3226 19.9583 12.3479C19.9033 12.3732 19.8428 12.3843 19.7824 12.3801C19.7219 12.3759 19.6635 12.3566 19.6125 12.3239C19.3236 12.139 19.0203 11.8855 18.7408 11.6515C18.6206 11.55 18.499 11.4501 18.3761 11.3518C17.9695 11.0311 17.6539 10.8484 17.3917 10.8354C17.1425 10.8231 16.8551 10.9654 16.4933 11.2369C16.3633 11.3337 16.2376 11.4363 16.1076 11.5432L15.966 11.658C15.791 11.8042 15.6064 11.9386 15.4135 12.0603C15.3679 12.0879 15.3166 12.1051 15.2635 12.1106C15.2104 12.1161 15.1567 12.1097 15.1064 12.092C15.056 12.0742 15.0102 12.0455 14.9723 12.0079C14.9344 11.9704 14.9053 11.9249 14.887 11.8747V11.8747Z" fill="#55D653"/>
</svg>
