<svg width="26" height="26" viewBox="0 0 26 26" fill="none" xmlns="http://www.w3.org/2000/svg">
<path d="M17.353 9.74999C16.922 9.74999 16.5087 9.9212 16.204 10.2259C15.8992 10.5307 15.728 10.944 15.728 11.375C15.728 11.806 15.8992 12.2193 16.204 12.524C16.5087 12.8288 16.922 13 17.353 13C17.784 13 18.1973 12.8288 18.5021 12.524C18.8068 12.2193 18.978 11.806 18.978 11.375C18.978 10.944 18.8068 10.5307 18.5021 10.2259C18.1973 9.9212 17.784 9.74999 17.353 9.74999ZM7.3125 11.375C7.3125 10.944 7.4837 10.5307 7.78845 10.2259C8.0932 9.9212 8.50652 9.74999 8.9375 9.74999C9.36848 9.74999 9.7818 9.9212 10.0865 10.2259C10.3913 10.5307 10.5625 10.944 10.5625 11.375C10.5625 11.806 10.3913 12.2193 10.0865 12.524C9.7818 12.8288 9.36848 13 8.9375 13C8.50652 13 8.0932 12.8288 7.78845 12.524C7.4837 12.2193 7.3125 11.806 7.3125 11.375ZM18.9051 16.7955C18.7378 16.6618 18.5243 16.5995 18.3113 16.6223C18.0983 16.6452 17.9029 16.7512 17.7676 16.9174L17.7628 16.9223C17.6924 17.0002 17.6181 17.0745 17.5401 17.1449C17.2868 17.373 17.0107 17.5744 16.7163 17.7462C15.9671 18.1849 14.7874 18.648 13.1201 18.648C11.4529 18.648 10.2715 18.1865 9.51914 17.7445C9.22424 17.5727 8.94765 17.3713 8.69364 17.1433C8.61518 17.0729 8.54033 16.9986 8.46939 16.9207L8.46452 16.9158C8.39729 16.8329 8.3144 16.764 8.22057 16.7132C8.12674 16.6623 8.02381 16.6304 7.91766 16.6193C7.8115 16.6082 7.7042 16.6181 7.60188 16.6485C7.49957 16.6789 7.40423 16.7291 7.32133 16.7964C7.23842 16.8636 7.16957 16.9465 7.1187 17.0403C7.06783 17.1341 7.03594 17.2371 7.02485 17.3432C7.01376 17.4494 7.02368 17.5567 7.05406 17.659C7.08444 17.7613 7.13467 17.8566 7.20189 17.9395L7.83564 17.4293L7.20189 17.9379V17.9395L7.20514 17.9412L7.20839 17.9444L7.21652 17.9542L7.23927 17.9834L7.31889 18.0712C7.38389 18.141 7.47814 18.2369 7.60164 18.3474C7.84864 18.5717 8.21102 18.8609 8.69689 19.1453C9.67189 19.7189 11.1344 20.3125 13.1201 20.3125C15.1043 20.3125 16.5651 19.7205 17.5401 19.1453C18.0276 18.8593 18.3884 18.5717 18.6338 18.349C18.7606 18.2333 18.881 18.1107 18.9945 17.9818L19.0189 17.9542L19.027 17.9444L19.0303 17.9395C19.0303 17.9395 19.0319 17.9363 18.3981 17.4293L19.0319 17.9363C19.1661 17.7681 19.2282 17.5536 19.2044 17.3397C19.1806 17.1258 19.073 16.9301 18.9051 16.7955ZM13 26C16.4478 26 19.7544 24.6304 22.1924 22.1924C24.6304 19.7544 26 16.4478 26 13C26 9.55218 24.6304 6.24558 22.1924 3.8076C19.7544 1.36963 16.4478 -9.53674e-06 13 -9.53674e-06C9.55219 -9.53674e-06 6.24558 1.36963 3.80761 3.8076C1.36964 6.24558 0 9.55218 0 13C0 16.4478 1.36964 19.7544 3.80761 22.1924C6.24558 24.6304 9.55219 26 13 26ZM24.375 13C24.375 14.4938 24.0808 15.9729 23.5091 17.353C22.9375 18.7331 22.0996 19.9871 21.0433 21.0433C19.9871 22.0996 18.7331 22.9375 17.353 23.5091C15.9729 24.0808 14.4938 24.375 13 24.375C11.5062 24.375 10.0271 24.0808 8.64697 23.5091C7.2669 22.9375 6.01293 22.0996 4.95666 21.0433C3.90039 19.9871 3.06252 18.7331 2.49087 17.353C1.91922 15.9729 1.625 14.4938 1.625 13C1.625 9.98315 2.82343 7.08988 4.95666 4.95665C7.08989 2.82343 9.98316 1.62499 13 1.62499C16.0168 1.62499 18.9101 2.82343 21.0433 4.95665C23.1766 7.08988 24.375 9.98315 24.375 13Z" fill="#FFB74A"/>
</svg>
