<svg width="44" height="44" viewBox="0 0 44 44" fill="none" xmlns="http://www.w3.org/2000/svg">
<path d="M22.22 37.2861L22 37.5259L21.758 37.2861C11.308 26.9515 4.4 20.1177 4.4 13.188C4.4 8.39237 7.7 4.79564 12.1 4.79564C15.488 4.79564 18.788 7.19346 19.954 10.4545L22 14.5L24.046 10.4545C25.212 7.19346 28.512 4.79564 31.9 4.79564C36.3 4.79564 39.6 8.39237 39.6 13.188C39.6 20.1177 32.692 26.9515 22.22 37.2861ZM31.9 0C28.072 0 24.398 1.94223 22 4.98747C19.602 1.94223 15.928 0 12.1 0C5.324 0 0 5.77875 0 13.188C0 22.2278 7.48 29.6371 18.81 40.8349L22 44L25.19 40.8349C36.52 29.6371 44 22.2278 44 13.188C44 5.77875 38.676 0 31.9 0Z" fill="#2B2B2B"/>
</svg>
