<svg width="43" height="52" viewBox="0 0 43 52" fill="none" xmlns="http://www.w3.org/2000/svg">
<path d="M16.6735 51.1905C16.1859 51.1905 15.7472 51.0198 15.3571 50.6786C15.0159 50.2885 14.8452 49.8498 14.8452 49.3622V11.4813H1.82823C1.3407 11.4813 0.901927 11.3107 0.511905 10.9694C0.170635 10.5794 0 10.1406 0 9.65306V1.82823C0 1.29195 0.170635 0.853175 0.511905 0.511906C0.901927 0.170635 1.3407 0 1.82823 0H41.1718C41.708 0 42.1468 0.170635 42.4881 0.511906C42.8294 0.853175 43 1.29195 43 1.82823V9.65306C43 10.1893 42.8294 10.6281 42.4881 10.9694C42.1468 11.3107 41.708 11.4813 41.1718 11.4813H28.1548V49.3622C28.1548 49.8498 27.9841 50.2885 27.6429 50.6786C27.3016 51.0198 26.8628 51.1905 26.3265 51.1905H16.6735Z" fill="black"/>
</svg>
