<svg width="27" height="27" viewBox="0 0 27 27" fill="none" xmlns="http://www.w3.org/2000/svg">
<path d="M3.375 1.76553C2.92745 1.76553 2.49823 1.95154 2.18176 2.28264C1.86529 2.61374 1.6875 3.06281 1.6875 3.53105V17.6553C1.6875 18.1235 1.86529 18.5726 2.18176 18.9037C2.49823 19.2348 2.92745 19.4208 3.375 19.4208H19.5514C20.4464 19.421 21.3047 19.7931 21.9375 20.4554L25.3125 23.9864V3.53105C25.3125 3.06281 25.1347 2.61374 24.8182 2.28264C24.5018 1.95154 24.0726 1.76553 23.625 1.76553H3.375ZM23.625 0C24.5201 0 25.3786 0.372021 26.0115 1.03422C26.6444 1.69642 27 2.59456 27 3.53105V26.1174C27 26.2921 26.9504 26.4628 26.8576 26.608C26.7648 26.7532 26.6329 26.8663 26.4786 26.9331C26.3243 26.9998 26.1545 27.0171 25.9908 26.9829C25.8271 26.9486 25.6768 26.8643 25.5589 26.7407L20.7444 21.7036C20.428 21.3725 19.9989 21.1864 19.5514 21.1863H3.375C2.47989 21.1863 1.62145 20.8143 0.988516 20.1521C0.355579 19.4899 0 18.5918 0 17.6553V3.53105C0 2.59456 0.355579 1.69642 0.988516 1.03422C1.62145 0.372021 2.47989 0 3.375 0L23.625 0Z" fill="#2B2B2B"/>
<path d="M21.9375 6.17933C21.9375 5.94521 21.8486 5.72068 21.6904 5.55513C21.5321 5.38958 21.3175 5.29657 21.0938 5.29657H5.90625C5.68247 5.29657 5.46786 5.38958 5.30963 5.55513C5.15139 5.72068 5.0625 5.94521 5.0625 6.17933C5.0625 6.41346 5.15139 6.63799 5.30963 6.80354C5.46786 6.96909 5.68247 7.0621 5.90625 7.0621H21.0938C21.3175 7.0621 21.5321 6.96909 21.6904 6.80354C21.8486 6.63799 21.9375 6.41346 21.9375 6.17933ZM21.9375 10.5931C21.9375 10.359 21.8486 10.1345 21.6904 9.96894C21.5321 9.80339 21.3175 9.71038 21.0938 9.71038H5.90625C5.68247 9.71038 5.46786 9.80339 5.30963 9.96894C5.15139 10.1345 5.0625 10.359 5.0625 10.5931C5.0625 10.8273 5.15139 11.0518 5.30963 11.2174C5.46786 11.3829 5.68247 11.4759 5.90625 11.4759H21.0938C21.3175 11.4759 21.5321 11.3829 21.6904 11.2174C21.8486 11.0518 21.9375 10.8273 21.9375 10.5931ZM21.9375 15.007C21.9375 14.7728 21.8486 14.5483 21.6904 14.3828C21.5321 14.2172 21.3175 14.1242 21.0938 14.1242H12.6562C12.4325 14.1242 12.2179 14.2172 12.0596 14.3828C11.9014 14.5483 11.8125 14.7728 11.8125 15.007C11.8125 15.2411 11.9014 15.4656 12.0596 15.6312C12.2179 15.7967 12.4325 15.8897 12.6562 15.8897H21.0938C21.3175 15.8897 21.5321 15.7967 21.6904 15.6312C21.8486 15.4656 21.9375 15.2411 21.9375 15.007Z" fill="#2B2B2B"/>
</svg>
