<svg width="64" height="64" viewBox="0 0 64 64" fill="none" xmlns="http://www.w3.org/2000/svg">
<circle cx="32" cy="32" r="31.5" fill="white" stroke="url(#paint0_linear_130_1160)"/>
<path d="M30.5962 15C25.886 15 21.6392 17.304 19.6884 20.8211C18.7001 20.8577 17.7629 21.333 17.0747 22.1467C16.3865 22.9603 16.0011 24.0486 16 25.1818C16 26.4895 16.5166 28.1215 17.2692 29.2807V47H19.8077V28.1898L19.4675 27.7724C18.9192 27.0931 18.5385 25.8655 18.5385 25.1818C18.5385 24.796 18.6722 24.4261 18.9102 24.1533C19.1482 23.8805 19.4711 23.7273 19.8077 23.7273C19.8902 23.7273 19.9867 23.7433 20.0996 23.7724L21.0947 24.0458L21.5351 22.9855C22.7866 19.9964 26.513 17.9091 30.5962 17.9091H34.4038C38.487 17.9091 42.2134 19.9964 43.4649 22.9855L43.9053 24.0458L44.9004 23.7724C45.0133 23.7433 45.1098 23.7273 45.1923 23.7273C45.5289 23.7273 45.8518 23.8805 46.0898 24.1533C46.3278 24.4261 46.4615 24.796 46.4615 25.1818C46.4615 25.864 46.0808 27.0931 45.5325 27.7724L45.1923 28.1898V47H47.7308V29.2807C48.4834 28.1215 49 26.4895 49 25.1818C48.9989 24.0486 48.6135 22.9603 47.9253 22.1467C47.2371 21.333 46.2999 20.8577 45.3116 20.8211C43.3608 17.304 39.1127 15 34.4038 15H30.5962ZM24.8846 25.1818C24.548 25.1818 24.2252 25.4117 23.9871 25.8209C23.7491 26.23 23.6154 26.785 23.6154 27.3636C23.6154 27.9423 23.7491 28.4972 23.9871 28.9064C24.2252 29.3156 24.548 29.5455 24.8846 29.5455C25.2212 29.5455 25.5441 29.3156 25.7821 28.9064C26.0201 28.4972 26.1538 27.9423 26.1538 27.3636C26.1538 26.785 26.0201 26.23 25.7821 25.8209C25.5441 25.4117 25.2212 25.1818 24.8846 25.1818ZM40.1154 25.1818C39.7788 25.1818 39.4559 25.4117 39.2179 25.8209C38.9799 26.23 38.8462 26.785 38.8462 27.3636C38.8462 27.9423 38.9799 28.4972 39.2179 28.9064C39.4559 29.3156 39.7788 29.5455 40.1154 29.5455C40.452 29.5455 40.7748 29.3156 41.0129 28.9064C41.2509 28.4972 41.3846 27.9423 41.3846 27.3636C41.3846 26.785 41.2509 26.23 41.0129 25.8209C40.7748 25.4117 40.452 25.1818 40.1154 25.1818ZM32.5 26.6625C31.3387 26.6625 30.1773 27.1324 29.1632 28.0705C24.6485 32.2567 24.5432 32.3615 24.2297 32.6625L24.0939 32.7935C22.9668 33.8713 22.3462 35.3025 22.3462 36.8182C22.3462 40.0269 24.6232 42.6364 27.4231 42.6364C29.3244 42.6364 31.1216 42.1127 32.5 41.1731C33.8784 42.1127 35.6756 42.6364 37.5769 42.6364C40.3768 42.6364 42.6538 40.0269 42.6538 36.8182C42.6538 35.304 42.0332 33.8742 40.9061 32.792L40.7703 32.6611C40.4581 32.3615 40.3515 32.2553 35.8368 28.0676C34.824 27.1309 33.6613 26.6625 32.5 26.6625ZM32.5 29.5513C33.0877 29.5513 33.6766 29.8116 34.2401 30.3324C38.7167 34.4836 38.8258 34.5884 39.1343 34.8851L39.2777 35.0262C39.6585 35.3927 40.1154 35.9993 40.1154 36.8182C40.1154 38.4225 38.9769 39.7273 37.5769 39.7273C35.8774 39.7273 34.2769 39.1876 33.2983 38.2815L32.5419 37.5833C32.6371 36.3178 32.9899 35.3636 33.7692 35.3636C35.1717 35.3636 36.3077 35.0698 36.3077 34.3062C36.3077 33.2836 34.6031 32.4545 32.5 32.4545C30.3969 32.4545 28.6923 33.2836 28.6923 34.3062C28.6923 35.0698 29.8283 35.3636 31.2308 35.3636C32.0101 35.3636 32.3629 36.3178 32.4581 37.5818L31.7017 38.28C30.7231 39.1891 29.1238 39.7273 27.4231 39.7273C26.0231 39.7273 24.8846 38.4225 24.8846 36.8182C24.8846 36.0007 25.3415 35.3927 25.7248 35.0262L25.8683 34.8865C26.178 34.5884 26.2846 34.4851 30.7599 30.3353C31.3247 29.8116 31.9123 29.5498 32.5 29.5498V29.5513Z" fill="url(#paint1_linear_130_1160)"/>
<defs>
<linearGradient id="paint0_linear_130_1160" x1="1.15945e-07" y1="28.4444" x2="93.3344" y2="30.7387" gradientUnits="userSpaceOnUse">
<stop stop-color="#FE8C66"/>
<stop offset="1" stop-color="#FA4092"/>
</linearGradient>
<linearGradient id="paint1_linear_130_1160" x1="16" y1="29.2222" x2="64.1237" y2="30.4421" gradientUnits="userSpaceOnUse">
<stop stop-color="#FE8C66"/>
<stop offset="1" stop-color="#FA4092"/>
</linearGradient>
</defs>
</svg>
