<svg width="327" height="62" viewBox="0 0 327 62" fill="none" xmlns="http://www.w3.org/2000/svg">
<path d="M19.677 60.4117C19.1016 60.4117 18.5838 60.2104 18.1235 59.8076C17.7208 59.3473 17.5194 58.8295 17.5194 58.2542V13.5495H2.15756C1.58221 13.5495 1.0644 13.3481 0.604117 12.9454C0.201372 12.4851 0 11.9673 0 11.3919V2.15757C0 1.52468 0.201372 1.00686 0.604117 0.60412C1.0644 0.201373 1.58221 0 2.15756 0H48.5883C49.2212 0 49.739 0.201373 50.1417 0.60412C50.5445 1.00686 50.7459 1.52468 50.7459 2.15757V11.3919C50.7459 12.0248 50.5445 12.5426 50.1417 12.9454C49.739 13.3481 49.2212 13.5495 48.5883 13.5495H33.2265V58.2542C33.2265 58.8295 33.0251 59.3473 32.6223 59.8076C32.2196 60.2104 31.7018 60.4117 31.0689 60.4117H19.677Z" fill="black"/>
<path d="M70.7674 61.2748C63.8632 61.2748 58.4261 59.4049 54.4562 55.6651C50.4863 51.9253 48.415 46.4883 48.2424 39.3539V36.3333C48.4725 29.5442 50.5726 24.251 54.5425 20.4537C58.5699 16.5988 63.9495 14.6714 70.681 14.6714C75.5715 14.6714 79.6853 15.6783 83.0223 17.692C86.4169 19.6482 88.9484 22.3523 90.6169 25.8044C92.343 29.2565 93.206 33.2265 93.206 37.7142V39.7854C93.206 40.3608 93.0046 40.8786 92.6019 41.3389C92.1991 41.7416 91.6813 41.943 91.0484 41.943H63.4316V42.5471C63.5467 45.2513 64.2084 47.4376 65.4166 49.1061C66.6248 50.7746 68.3796 51.6089 70.681 51.6089C72.1194 51.6089 73.2989 51.3212 74.2195 50.7459C75.14 50.113 75.9743 49.365 76.7222 48.502C77.24 47.8691 77.6428 47.4951 77.9305 47.3801C78.2757 47.2075 78.7935 47.1212 79.4839 47.1212H90.1854C90.7032 47.1212 91.1347 47.2938 91.4799 47.639C91.8827 47.9266 92.0841 48.3294 92.0841 48.8472C92.0841 50.3431 91.221 52.0692 89.495 54.0254C87.8265 55.9815 85.3812 57.6788 82.1593 59.1172C78.9373 60.5556 75.14 61.2748 70.7674 61.2748ZM78.0168 33.3991V33.2265C78.0168 30.4072 77.3551 28.1921 76.0318 26.5812C74.766 24.9127 72.9824 24.0784 70.681 24.0784C68.4372 24.0784 66.6536 24.9127 65.3303 26.5812C64.0645 28.1921 63.4316 30.4072 63.4316 33.2265V33.3991H78.0168Z" fill="black"/>
<path d="M103.454 60.4117C102.822 60.4117 102.304 60.2104 101.901 59.8076C101.498 59.4049 101.297 58.8871 101.297 58.2542V17.692C101.297 17.0591 101.498 16.5413 101.901 16.1386C102.304 15.7358 102.822 15.5344 103.454 15.5344H112.861C113.494 15.5344 114.012 15.7358 114.415 16.1386C114.818 16.5413 115.019 17.0591 115.019 17.692V20.6263C116.342 18.9002 118.097 17.4906 120.283 16.3975C122.527 15.2468 125.03 14.6714 127.792 14.6714C134.121 14.6714 138.493 17.1454 140.91 22.0934C142.291 19.9071 144.218 18.1235 146.692 16.7427C149.166 15.3618 151.813 14.6714 154.632 14.6714C159.35 14.6714 163.176 16.2824 166.11 19.5044C169.102 22.6688 170.598 27.4154 170.598 33.7443V58.2542C170.598 58.8295 170.396 59.3473 169.994 59.8076C169.591 60.2104 169.073 60.4117 168.44 60.4117H158.429C157.796 60.4117 157.25 60.2104 156.789 59.8076C156.387 59.4049 156.185 58.8871 156.185 58.2542V34.3484C156.185 31.4716 155.581 29.4004 154.373 28.1346C153.222 26.8688 151.64 26.236 149.626 26.236C147.785 26.236 146.26 26.8976 145.052 28.2209C143.844 29.4867 143.24 31.5292 143.24 34.3484V58.2542C143.24 58.8295 143.038 59.3473 142.636 59.8076C142.233 60.2104 141.715 60.4117 141.082 60.4117H131.071C130.438 60.4117 129.921 60.2104 129.518 59.8076C129.115 59.4049 128.914 58.8871 128.914 58.2542V34.3484C128.914 31.5292 128.281 29.4867 127.015 28.2209C125.807 26.8976 124.253 26.236 122.355 26.236C120.514 26.236 118.96 26.8976 117.694 28.2209C116.486 29.4867 115.882 31.5004 115.882 34.2621V58.2542C115.882 58.8295 115.681 59.3473 115.278 59.8076C114.875 60.2104 114.357 60.4117 113.724 60.4117H103.454Z" fill="black"/>
<path d="M182.509 60.4117C181.876 60.4117 181.358 60.2104 180.955 59.8076C180.553 59.4049 180.351 58.8871 180.351 58.2542V17.692C180.351 17.0591 180.553 16.5413 180.955 16.1386C181.358 15.7358 181.876 15.5344 182.509 15.5344H191.916C192.549 15.5344 193.066 15.7358 193.469 16.1386C193.872 16.5413 194.073 17.0591 194.073 17.692V20.6263C195.397 18.9002 197.151 17.4906 199.338 16.3975C201.582 15.2468 204.084 14.6714 206.846 14.6714C213.175 14.6714 217.548 17.1454 219.964 22.0934C221.345 19.9071 223.272 18.1235 225.746 16.7427C228.22 15.3618 230.867 14.6714 233.686 14.6714C238.404 14.6714 242.23 16.2824 245.164 19.5044C248.156 22.6688 249.652 27.4154 249.652 33.7443V58.2542C249.652 58.8295 249.451 59.3473 249.048 59.8076C248.645 60.2104 248.127 60.4117 247.495 60.4117H237.483C236.851 60.4117 236.304 60.2104 235.844 59.8076C235.441 59.4049 235.24 58.8871 235.24 58.2542V34.3484C235.24 31.4716 234.636 29.4004 233.427 28.1346C232.277 26.8688 230.694 26.236 228.681 26.236C226.84 26.236 225.315 26.8976 224.107 28.2209C222.898 29.4867 222.294 31.5292 222.294 34.3484V58.2542C222.294 58.8295 222.093 59.3473 221.69 59.8076C221.287 60.2104 220.77 60.4117 220.137 60.4117H210.126C209.493 60.4117 208.975 60.2104 208.572 59.8076C208.169 59.4049 207.968 58.8871 207.968 58.2542V34.3484C207.968 31.5292 207.335 29.4867 206.069 28.2209C204.861 26.8976 203.308 26.236 201.409 26.236C199.568 26.236 198.015 26.8976 196.749 28.2209C195.541 29.4867 194.936 31.5004 194.936 34.2621V58.2542C194.936 58.8295 194.735 59.3473 194.332 59.8076C193.93 60.2104 193.412 60.4117 192.779 60.4117H182.509Z" fill="black"/>
<path d="M272.869 61.2748C269.82 61.2748 267.029 60.6994 264.498 59.5487C262.024 58.3405 260.067 56.7295 258.629 54.7158C257.248 52.6445 256.558 50.3719 256.558 47.8979C256.558 43.928 258.169 40.7348 261.391 38.3183C264.67 35.9018 269.158 34.2333 274.854 33.3128L285.642 31.673V30.4648C285.642 28.2784 285.181 26.6675 284.261 25.6318C283.34 24.5962 281.787 24.0784 279.6 24.0784C278.277 24.0784 277.184 24.3085 276.321 24.7688C275.458 25.2291 274.566 25.862 273.646 26.6675C272.84 27.3579 272.236 27.8182 271.833 28.0483C271.661 28.5086 271.344 28.7387 270.884 28.7387H261.477C260.902 28.7387 260.413 28.5661 260.01 28.2209C259.665 27.8182 259.521 27.3579 259.578 26.8401C259.636 25.2866 260.384 23.5606 261.822 21.6619C263.318 19.7633 265.562 18.1235 268.554 16.7427C271.603 15.3618 275.343 14.6714 279.773 14.6714C286.85 14.6714 292.086 16.2536 295.48 19.4181C298.875 22.5249 300.572 26.725 300.572 32.0182V58.2542C300.572 58.8295 300.371 59.3473 299.968 59.8076C299.565 60.2104 299.047 60.4117 298.414 60.4117H288.403C287.828 60.4117 287.31 60.2104 286.85 59.8076C286.447 59.3473 286.246 58.8295 286.246 58.2542V55.2336C284.98 57.0172 283.196 58.4843 280.895 59.635C278.651 60.7282 275.976 61.2748 272.869 61.2748ZM276.925 51.4363C279.572 51.4363 281.7 50.5733 283.311 48.8472C284.98 47.1212 285.814 44.5896 285.814 41.2526V40.0444L278.479 41.3389C273.3 42.2594 270.711 44.0718 270.711 46.7759C270.711 48.2143 271.315 49.365 272.524 50.228C273.732 51.0335 275.199 51.4363 276.925 51.4363Z" fill="black"/>
<path d="M321.563 37.11H309.135C306.132 37.11 303.698 39.5443 303.698 42.5471V54.9747C303.698 57.9775 306.132 60.4117 309.135 60.4117H321.563C324.566 60.4117 327 57.9775 327 54.9747V42.5471C327 39.5443 324.566 37.11 321.563 37.11Z" fill="url(#paint0_linear_6_572)"/>
<defs>
<linearGradient id="paint0_linear_6_572" x1="303.698" y1="47.4663" x2="337.68" y2="48.3017" gradientUnits="userSpaceOnUse">
<stop stop-color="#FE8C66"/>
<stop offset="1" stop-color="#FA4092"/>
</linearGradient>
</defs>
</svg>
